<?xml version="1.0" encoding="UTF-8" standalone="no"?>
<svg
   xmlns:dc="http://purl.org/dc/elements/1.1/"
   xmlns:cc="http://creativecommons.org/ns#"
   xmlns:rdf="http://www.w3.org/1999/02/22-rdf-syntax-ns#"
   xmlns:svg="http://www.w3.org/2000/svg"
   xmlns="http://www.w3.org/2000/svg"
   xmlns:sodipodi="http://sodipodi.sourceforge.net/DTD/sodipodi-0.dtd"
   xmlns:inkscape="http://www.inkscape.org/namespaces/inkscape"
   data-v-423bf9ae=""
   viewBox="0 0 189.02761 60"
   class="iconAbove"
   version="1.1"
   id="svg14"
   sodipodi:docname="midala-white.svg"
   width="189.0276"
   height="60"
   inkscape:version="0.92.1 r15371">
  <metadata
     id="metadata20">
    <rdf:RDF>
      <cc:Work
         rdf:about="">
        <dc:format>image/svg+xml</dc:format>
        <dc:type
           rdf:resource="http://purl.org/dc/dcmitype/StillImage" />
        <dc:title></dc:title>
      </cc:Work>
    </rdf:RDF>
  </metadata>
  <defs
     id="defs18" />
  <sodipodi:namedview
     pagecolor="#ffffff"
     bordercolor="#666666"
     borderopacity="1"
     objecttolerance="10"
     gridtolerance="10"
     guidetolerance="10"
     inkscape:pageopacity="0"
     inkscape:pageshadow="2"
     inkscape:window-width="1366"
     inkscape:window-height="705"
     id="namedview16"
     showgrid="false"
     fit-margin-top="0"
     fit-margin-left="0"
     fit-margin-right="0"
     fit-margin-bottom="0"
     inkscape:zoom="1.2826087"
     inkscape:cx="-79.158639"
     inkscape:cy="91.652044"
     inkscape:window-x="0"
     inkscape:window-y="0"
     inkscape:window-maximized="1"
     inkscape:current-layer="svg14" />
  <!---->
  <!---->
  <!---->
  <g
     data-v-423bf9ae=""
     id="dfbbf02d-0d95-46b5-8d0e-dbb4c2fb9082"
     transform="matrix(3.9421813,0,0,3.9421813,0,4.6517762)"
     inkscape:export-filename="/home/netico/Nextcloud/Code/Midala/midala.png"
     inkscape:export-xdpi="152"
     inkscape:export-ydpi="152"
     style="fill:#ffffff;fill-opacity:1">
    <path
       d="m 11.58,13.87 v 0.1 0 Q 11.41,13.94 11.16,13.9 v 0 0 q -0.21,-0.03 -0.52,-0.05 v 0 0 q -0.31,-0.02 -0.7,-0.02 v 0 0 q -0.41,0 -0.71,0.02 v 0 0 Q 8.92,13.87 8.72,13.9 v 0 0 q -0.24,0.04 -0.4,0.07 v 0 -0.14 l 0.54,-0.08 v 0 q 0,-1.56 -0.03,-3.35 v 0 0 Q 8.81,8.86 8.75,6.86 v 0 0 Q 8.69,4.86 8.6,2.62 v 0 0 Q 8.44,3.36 8.18,4.5 v 0 0 Q 7.92,5.64 7.53,7.09 v 0 0 q -0.4,1.45 -0.94,3.14 v 0 0 q -0.54,1.68 -1.24,3.52 v 0 0 Q 5.1,13.22 4.82,12.43 v 0 0 Q 4.54,11.65 4.24,10.72 v 0 0 Q 3.93,9.79 3.63,8.76 v 0 0 Q 3.33,7.73 3.04,6.71 v 0 0 Q 2.76,5.68 2.48,4.71 v 0 0 Q 2.2,3.74 1.96,2.93 v 0 0 Q 1.92,3.74 1.91,4.64 v 0 0 Q 1.9,5.54 1.92,6.45 v 0 0 q 0.01,0.91 0.04,1.81 v 0 0 q 0.03,0.9 0.06,1.71 v 0 0 q 0.07,1.9 0.19,3.78 v 0 l 0.87,0.08 v 0.18 0 Q 2.86,13.97 2.6,13.93 v 0 0 Q 2.39,13.9 2.11,13.87 v 0 0 Q 1.83,13.83 1.54,13.83 v 0 0 q -0.38,0 -0.66,0.02 v 0 0 Q 0.59,13.87 0.39,13.9 v 0 0 Q 0.15,13.94 0,13.97 v 0 -0.14 l 0.67,-0.08 v 0 Q 0.83,13.2 1.01,11.79 v 0 0 q 0.08,-0.6 0.17,-1.46 v 0 0 Q 1.26,9.48 1.36,8.32 v 0 0 Q 1.46,7.17 1.55,5.69 v 0 0 Q 1.65,4.21 1.76,2.34 v 0 0 Q 1.44,1.41 1.23,0.85 v 0 0 Q 1.01,0.29 0.87,0.25 v 0 0 Q 0.56,0.2 0.49,0.15 v 0 0 Q 0.43,0.14 0.42,0.13 v 0 V 0 0 q 0.2,0.04 0.41,0.07 v 0 0 Q 1.01,0.1 1.22,0.11 v 0 0 q 0.21,0.02 0.4,0.02 v 0 0 q 0.2,0 0.47,-0.02 v 0 0 Q 2.35,0.1 2.59,0.07 v 0 0 Q 2.86,0.04 3.14,0 v 0 0 q 0.08,0.59 0.24,1.39 v 0 0 Q 3.54,2.2 3.76,3.1 v 0 0 Q 3.98,4 4.22,4.96 v 0 0 Q 4.47,5.92 4.7,6.83 v 0 0 q 0.56,2.14 1.24,4.47 v 0 0 Q 6.34,9.79 6.79,8.11 v 0 0 Q 7.17,6.66 7.63,4.87 v 0 0 Q 8.09,3.08 8.54,1.22 v 0 0 Q 8.51,0.9 8.5,0.59 v 0 0 Q 8.48,0.29 8.44,0 v 0 0 q 0.09,0.04 0.24,0.07 v 0 0 Q 8.81,0.1 9.01,0.11 v 0 0 q 0.2,0.02 0.48,0.02 v 0 0 q 0.34,0 0.63,-0.02 v 0 0 Q 10.4,0.1 10.6,0.07 v 0 0 Q 10.84,0.04 11.03,0 v 0 0.13 l -0.67,0.12 v 0 q -0.08,0.69 -0.1,1.63 v 0 0 q -0.01,0.95 0.02,2.03 v 0 0 q 0.02,1.07 0.09,2.22 v 0 0 q 0.06,1.15 0.13,2.24 v 0 0 q 0.17,2.56 0.45,5.38 v 0 z m 3.65,-8.63 v 0 0 q -0.18,0.14 -0.36,0.29 v 0 0 q -0.16,0.14 -0.34,0.32 v 0 0 q -0.19,0.18 -0.35,0.38 v 0 0 Q 14.03,5.98 13.86,5.8 v 0 0 Q 13.69,5.61 13.54,5.49 v 0 0 Q 13.37,5.33 13.2,5.24 v 0 0 q 0.18,-0.14 0.35,-0.3 v 0 0 Q 13.71,4.8 13.87,4.62 v 0 0 q 0.17,-0.18 0.31,-0.39 v 0 0 q 0.16,0.24 0.34,0.42 v 0 0 q 0.18,0.19 0.33,0.32 v 0 0 q 0.19,0.15 0.38,0.27 z m -2.25,2.88 v 0 0 q 0.33,-0.14 0.64,-0.24 v 0 0 q 0.3,-0.11 0.57,-0.23 v 0 0 q 0.27,-0.12 0.53,-0.27 v 0 0 q 0.26,-0.14 0.51,-0.37 v 0 0 q 0.11,0.38 0.1,0.92 v 0 0 q -0.01,0.54 -0.06,1.13 v 0 0 q -0.05,0.6 -0.07,1.2 v 0 0 q -0.01,0.6 0.11,1.09 v 0 0 q 0.12,0.49 0.42,0.82 v 0 0 q 0.3,0.33 0.9,0.39 v 0 0 q -0.6,0.39 -1.03,0.74 v 0 0 q -0.42,0.35 -0.84,0.71 v 0 0 q -0.13,-0.05 -0.28,-0.12 v 0 0 q -0.16,-0.07 -0.3,-0.2 v 0 0 q -0.14,-0.14 -0.24,-0.34 v 0 0 q -0.11,-0.2 -0.12,-0.53 v 0 0 q 0.01,-0.95 0.04,-1.81 v 0 0 Q 13.89,10.15 13.83,9.5 v 0 0 Q 13.78,8.85 13.59,8.48 v 0 0 Q 13.4,8.11 12.98,8.12 Z m 2.85,-4.79 v 0 0 q 0,-0.5 0.4,-1 v 0 0 q 0.4,-0.5 1.02,-0.94 v 0 0 Q 17.88,0.95 18.63,0.6 v 0 0 q 0.76,-0.35 1.46,-0.56 v 0 0 q -0.53,0.17 -1.02,0.44 v 0 0 Q 18.58,0.74 18.2,1.06 v 0 0 q -0.38,0.31 -0.61,0.65 v 0 0 q -0.23,0.35 -0.23,0.67 v 0 0 q 0,0.38 0.25,0.8 v 0 0 q 0.24,0.42 0.62,0.85 v 0 0 q 0.39,0.42 0.87,0.83 v 0 0 q 0.49,0.4 0.97,0.75 v 0 0 q 0.48,0.34 0.91,0.61 v 0 0 q 0.43,0.28 0.72,0.42 v 0 0 q 0.28,0.14 0.64,0.28 v 0 0 q 0.37,0.15 0.75,0.34 v 0 0 q 0.39,0.19 0.77,0.43 v 0 0 q 0.37,0.25 0.67,0.58 v 0 0 Q 24.82,8.61 25,9.04 v 0 0 q 0.19,0.44 0.19,1.01 v 0 0 q 0,0.46 -0.14,0.86 v 0 0 q -0.14,0.39 -0.38,0.72 v 0 0 q -0.24,0.34 -0.54,0.63 v 0 0 q -0.3,0.28 -0.64,0.55 v 0 0 q -0.67,0.53 -1.29,0.87 v 0 0 q -0.61,0.33 -1.27,0.33 v 0 0 q -0.55,0 -1.01,-0.22 v 0 0 q -0.46,-0.22 -0.78,-0.58 v 0 0 q -0.32,-0.36 -0.51,-0.8 v 0 0 q -0.18,-0.44 -0.18,-0.87 v 0 0 q 0,-0.62 0.14,-1.03 v 0 0 q 0.14,-0.42 0.37,-0.7 v 0 0 q 0.23,-0.28 0.53,-0.47 v 0 0 q 0.29,-0.2 0.6,-0.38 v 0 0 q 0.28,-0.22 0.57,-0.39 v 0 0 Q 20.94,8.4 21.28,8.29 v 0 0 Q 20.78,8.04 20.3,7.78 v 0 0 Q 19.82,7.52 19.46,7.24 v 0 0 Q 19.19,7.06 18.82,6.8 v 0 0 Q 18.45,6.55 18.05,6.25 v 0 0 q -0.4,-0.3 -0.8,-0.65 v 0 0 Q 16.86,5.25 16.54,4.88 v 0 0 Q 16.23,4.51 16.03,4.12 v 0 0 q -0.2,-0.4 -0.2,-0.79 z m 7.79,7.58 v 0 0 q 0,-0.44 -0.18,-0.79 v 0 0 Q 23.27,9.76 22.97,9.46 v 0 0 Q 22.68,9.16 22.29,8.9 v 0 0 Q 21.9,8.65 21.46,8.43 v 0 0 q -0.25,0.04 -0.52,0.19 v 0 0 Q 20.66,8.76 20.45,9 v 0 0 q -0.22,0.24 -0.37,0.55 v 0 0 q -0.14,0.32 -0.14,0.7 v 0 0 q 0,0.45 0.16,0.87 v 0 0 q 0.17,0.43 0.49,0.77 v 0 0 q 0.33,0.33 0.8,0.54 v 0 0 q 0.46,0.2 1.08,0.2 v 0 0 q 0.48,0 0.72,-0.12 v 0 0 q 0.25,-0.12 0.34,-0.34 v 0 0 q 0.09,-0.23 0.09,-0.55 v 0 0 q 0,-0.32 0,-0.71 z m 9.14,-1.39 v 0 0 q 0.11,0.27 0.32,0.78 v 0 0 q 0.21,0.52 0.44,1.05 v 0 0 q 0.23,0.54 0.46,0.94 v 0 0 q 0.22,0.41 0.38,0.44 v 0 0 q -0.42,0.23 -0.88,0.57 v 0 0 q -0.45,0.34 -0.79,0.7 v 0 0 q -0.07,-0.31 -0.25,-0.86 v 0 0 q -0.18,-0.55 -0.49,-1.21 v 0 0 q -0.27,0.26 -0.67,0.62 v 0 0 q -0.41,0.36 -0.87,0.68 v 0 0 q -0.46,0.32 -0.96,0.55 v 0 0 Q 28.95,14 28.5,14 v 0 0 q -0.32,0 -0.66,-0.09 v 0 0 Q 27.5,13.82 27.22,13.64 v 0 0 q -0.28,-0.17 -0.46,-0.42 v 0 0 q -0.17,-0.26 -0.17,-0.58 v 0 0 q 0,-0.39 0.4,-0.84 v 0 0 Q 27.4,11.35 28,10.91 v 0 0 q 0.6,-0.44 1.3,-0.86 v 0 0 Q 30,9.63 30.59,9.27 v 0 0 Q 30.16,8.72 29.77,8.48 v 0 0 Q 29.39,8.23 28.92,8.23 v 0 0 q -0.19,0 -0.51,0.11 v 0 0 Q 28.1,8.46 27.8,8.6 v 0 0 q -0.36,0.15 -0.72,0.35 v 0 0 q 0.78,-0.54 1.51,-0.97 v 0 0 Q 28.9,7.8 29.22,7.63 v 0 0 q 0.32,-0.17 0.62,-0.31 v 0 0 Q 30.14,7.18 30.4,7.1 v 0 0 q 0.26,-0.09 0.44,-0.09 v 0 0 q 0.35,0 0.65,0.3 v 0 0 q 0.3,0.31 0.55,0.72 v 0 0 q 0.24,0.41 0.42,0.83 v 0 0 q 0.17,0.42 0.3,0.66 z m -2.74,3.12 v 0 0 q 0.33,0 0.64,-0.1 v 0 0 q 0.31,-0.09 0.54,-0.28 v 0 0 q 0.23,-0.18 0.37,-0.43 v 0 0 q 0.14,-0.25 0.14,-0.55 v 0 0 Q 31.6,11.1 31.47,10.88 v 0 0 q -0.12,-0.21 -0.24,-0.41 v 0 0 Q 31.12,10.22 31,9.99 v 0 0 Q 30.88,9.76 30.76,9.6 v 0 0 q -0.31,0.12 -0.75,0.32 v 0 0 q -0.44,0.2 -0.85,0.47 v 0 0 q -0.4,0.28 -0.69,0.6 v 0 0 q -0.29,0.32 -0.29,0.67 v 0 0 q 0,0.2 0.15,0.37 v 0 0 q 0.15,0.18 0.39,0.31 v 0 0 q 0.25,0.13 0.58,0.22 v 0 0 q 0.34,0.08 0.72,0.08 z m 5.97,-5.65 v 0 0 q 0,-1.57 0,-2.71 v 0 0 q 0,-1.14 -0.01,-1.96 v 0 0 Q 35.97,1.5 35.91,0.95 v 0 0 Q 35.85,0.41 35.76,0.01 v 0 0 q 0.96,0 1.63,-0.35 v 0 0 q 0.66,-0.36 1.22,-0.84 v 0 0 q -0.28,0.41 -0.47,0.73 v 0 0 q -0.2,0.32 -0.27,0.55 v 0 0 q -0.15,0.49 -0.24,1.23 v 0 0 q -0.08,0.74 -0.12,1.65 v 0 0 q -0.05,0.91 -0.05,1.93 v 0 0 q -0.01,1.03 -0.01,2.08 v 0 0 q 0,1.06 -0.04,1.8 v 0 0 q -0.04,0.73 -0.07,1.25 v 0 0 q -0.02,0.53 0,0.89 v 0 0 q 0.03,0.35 0.15,0.66 v 0 0 q 0.1,0.2 0.21,0.38 v 0 0 q 0.11,0.18 0.27,0.34 v 0 0 q 0.15,0.16 0.35,0.27 v 0 0 q 0.19,0.1 0.46,0.12 v 0 0 q -0.53,0.38 -0.94,0.7 v 0 0 q -0.42,0.32 -0.75,0.64 v 0 0 Q 36.82,13.9 36.61,13.69 v 0 0 Q 36.4,13.47 36.25,13.23 v 0 0 q -0.14,-0.24 -0.23,-0.48 v 0 0 q -0.1,-0.23 -0.12,-0.42 v 0 0 Q 35.87,11.8 35.88,11.3 v 0 0 q 0.02,-0.51 0.04,-1.11 v 0 0 q 0.03,-0.6 0.05,-1.37 v 0 0 q 0.02,-0.77 0.02,-1.83 z m 10.36,2.53 v 0 0 q 0.12,0.27 0.33,0.78 v 0 0 q 0.21,0.52 0.44,1.05 v 0 0 q 0.23,0.54 0.45,0.94 v 0 0 q 0.23,0.41 0.38,0.44 v 0 0 q -0.42,0.23 -0.87,0.57 v 0 0 q -0.46,0.34 -0.8,0.7 v 0 0 q -0.07,-0.31 -0.25,-0.86 v 0 0 q -0.18,-0.55 -0.49,-1.21 v 0 0 q -0.26,0.26 -0.67,0.62 v 0 0 Q 44.46,12.91 44,13.23 v 0 0 q -0.46,0.32 -0.96,0.55 v 0 0 Q 42.55,14 42.1,14 v 0 0 q -0.32,0 -0.67,-0.09 v 0 0 q -0.34,-0.09 -0.62,-0.27 v 0 0 q -0.28,-0.17 -0.46,-0.42 v 0 0 q -0.17,-0.26 -0.17,-0.58 v 0 0 q 0,-0.39 0.41,-0.84 v 0 0 q 0.4,-0.45 1,-0.89 v 0 0 q 0.61,-0.44 1.31,-0.86 v 0 0 q 0.7,-0.42 1.28,-0.78 v 0 0 Q 43.75,8.72 43.37,8.48 v 0 0 Q 42.98,8.23 42.52,8.23 v 0 0 q -0.2,0 -0.51,0.11 v 0 0 Q 41.69,8.46 41.4,8.6 v 0 0 q -0.37,0.15 -0.73,0.35 v 0 0 q 0.78,-0.54 1.51,-0.97 v 0 0 Q 42.49,7.8 42.81,7.63 v 0 0 q 0.32,-0.17 0.63,-0.31 v 0 0 q 0.3,-0.14 0.55,-0.22 v 0 0 q 0.26,-0.09 0.45,-0.09 v 0 0 q 0.35,0 0.65,0.3 v 0 0 q 0.3,0.31 0.54,0.72 v 0 0 q 0.25,0.41 0.42,0.83 v 0 0 q 0.18,0.42 0.3,0.66 z m -2.74,3.12 v 0 0 q 0.34,0 0.64,-0.1 v 0 0 q 0.31,-0.09 0.54,-0.28 v 0 0 q 0.23,-0.18 0.37,-0.43 v 0 0 q 0.14,-0.25 0.14,-0.55 v 0 0 q -0.11,-0.18 -0.23,-0.4 v 0 0 q -0.13,-0.21 -0.24,-0.41 v 0 0 Q 44.72,10.22 44.6,9.99 v 0 0 Q 44.48,9.76 44.35,9.6 v 0 0 Q 44.04,9.72 43.6,9.92 v 0 0 q -0.44,0.2 -0.84,0.47 v 0 0 q -0.41,0.28 -0.7,0.6 v 0 0 q -0.28,0.32 -0.28,0.67 v 0 0 q 0,0.2 0.14,0.37 v 0 0 q 0.15,0.18 0.39,0.31 v 0 0 q 0.25,0.13 0.59,0.22 v 0 0 q 0.33,0.08 0.71,0.08 z"
       id="path2"
       inkscape:connector-curvature="0"
       style="fill:#ffffff;fill-opacity:1" />
  </g>
  <!---->
  <!---->
</svg>
